<svg width="231" height="57" viewBox="0 0 231 57" fill="none" xmlns="http://www.w3.org/2000/svg">
<path d="M54.5786 42.266C52.8306 42.266 51.2599 41.962 49.8666 41.354C48.4986 40.7207 47.4219 39.8593 46.6366 38.77C45.8512 37.6553 45.4459 36.376 45.4206 34.932H49.1066C49.2332 36.1733 49.7399 37.2247 50.6266 38.086C51.5386 38.922 52.8559 39.34 54.5786 39.34C56.2252 39.34 57.5172 38.9347 58.4546 38.124C59.4172 37.288 59.8986 36.224 59.8986 34.932C59.8986 33.9187 59.6199 33.0953 59.0626 32.462C58.5052 31.8287 57.8086 31.3473 56.9726 31.018C56.1366 30.6887 55.0092 30.334 53.5906 29.954C51.8426 29.498 50.4366 29.042 49.3726 28.586C48.3339 28.13 47.4346 27.4207 46.6746 26.458C45.9399 25.47 45.5726 24.1527 45.5726 22.506C45.5726 21.062 45.9399 19.7827 46.6746 18.668C47.4092 17.5533 48.4352 16.692 49.7526 16.084C51.0952 15.476 52.6279 15.172 54.3506 15.172C56.8332 15.172 58.8599 15.7927 60.4306 17.034C62.0266 18.2753 62.9259 19.922 63.1286 21.974H59.3286C59.2019 20.9607 58.6699 20.074 57.7326 19.314C56.7952 18.5287 55.5539 18.136 54.0086 18.136C52.5646 18.136 51.3866 18.516 50.4746 19.276C49.5626 20.0107 49.1066 21.0493 49.1066 22.392C49.1066 23.3547 49.3726 24.14 49.9046 24.748C50.4619 25.356 51.1332 25.8247 51.9186 26.154C52.7292 26.458 53.8566 26.8127 55.3006 27.218C57.0486 27.6993 58.4546 28.1807 59.5186 28.662C60.5826 29.118 61.4946 29.84 62.2546 30.828C63.0146 31.7907 63.3946 33.108 63.3946 34.78C63.3946 36.072 63.0526 37.288 62.3686 38.428C61.6846 39.568 60.6712 40.4927 59.3286 41.202C57.9859 41.9113 56.4026 42.266 54.5786 42.266ZM72.7013 24.026V36.3C72.7013 37.3133 72.9166 38.0353 73.3473 38.466C73.778 38.8713 74.5253 39.074 75.5893 39.074H78.1353V42H75.0193C73.094 42 71.65 41.5567 70.6873 40.67C69.7246 39.7833 69.2433 38.3267 69.2433 36.3V24.026H66.5453V21.176H69.2433V15.932H72.7013V21.176H78.1353V24.026H72.7013ZM81.0331 31.512C81.0331 29.384 81.4638 27.522 82.3251 25.926C83.1864 24.3047 84.3644 23.0507 85.8591 22.164C87.3791 21.2773 89.0638 20.834 90.9131 20.834C92.7371 20.834 94.3204 21.2267 95.6631 22.012C97.0058 22.7973 98.0064 23.7853 98.6651 24.976V21.176H102.161V42H98.6651V38.124C97.9811 39.34 96.9551 40.3533 95.5871 41.164C94.2444 41.9493 92.6738 42.342 90.8751 42.342C89.0258 42.342 87.3538 41.886 85.8591 40.974C84.3644 40.062 83.1864 38.7827 82.3251 37.136C81.4638 35.4893 81.0331 33.6147 81.0331 31.512ZM98.6651 31.55C98.6651 29.9793 98.3484 28.6113 97.7151 27.446C97.0818 26.2807 96.2204 25.394 95.1311 24.786C94.0671 24.1527 92.8891 23.836 91.5971 23.836C90.3051 23.836 89.1271 24.14 88.0631 24.748C86.9991 25.356 86.1504 26.2427 85.5171 27.408C84.8838 28.5733 84.5671 29.9413 84.5671 31.512C84.5671 33.108 84.8838 34.5013 85.5171 35.692C86.1504 36.8573 86.9991 37.7567 88.0631 38.39C89.1271 38.998 90.3051 39.302 91.5971 39.302C92.8891 39.302 94.0671 38.998 95.1311 38.39C96.2204 37.7567 97.0818 36.8573 97.7151 35.692C98.3484 34.5013 98.6651 33.1207 98.6651 31.55ZM106.713 31.55C106.713 29.3967 107.143 27.522 108.005 25.926C108.866 24.3047 110.057 23.0507 111.577 22.164C113.122 21.2773 114.883 20.834 116.859 20.834C119.417 20.834 121.52 21.4547 123.167 22.696C124.839 23.9373 125.941 25.66 126.473 27.864H122.749C122.394 26.5973 121.697 25.5967 120.659 24.862C119.645 24.1273 118.379 23.76 116.859 23.76C114.883 23.76 113.287 24.444 112.071 25.812C110.855 27.1547 110.247 29.0673 110.247 31.55C110.247 34.058 110.855 35.996 112.071 37.364C113.287 38.732 114.883 39.416 116.859 39.416C118.379 39.416 119.645 39.0613 120.659 38.352C121.672 37.6427 122.369 36.6293 122.749 35.312H126.473C125.915 37.44 124.801 39.15 123.129 40.442C121.457 41.7087 119.367 42.342 116.859 42.342C114.883 42.342 113.122 41.8987 111.577 41.012C110.057 40.1253 108.866 38.8713 108.005 37.25C107.143 35.6287 106.713 33.7287 106.713 31.55ZM142.715 42L134.545 32.804V42H131.087V13.88H134.545V30.41L142.563 21.176H147.389L137.585 31.55L147.427 42H142.715Z" fill="#2C2C2C"/>
<path d="M152.429 17.794C151.771 17.794 151.213 17.566 150.757 17.11C150.301 16.654 150.073 16.0967 150.073 15.438C150.073 14.7793 150.301 14.222 150.757 13.766C151.213 13.31 151.771 13.082 152.429 13.082C153.063 13.082 153.595 13.31 154.025 13.766C154.481 14.222 154.709 14.7793 154.709 15.438C154.709 16.0967 154.481 16.654 154.025 17.11C153.595 17.566 153.063 17.794 152.429 17.794ZM154.101 21.176V42H150.643V21.176H154.101ZM178.995 30.79C178.995 31.4487 178.957 32.1453 178.881 32.88H162.237C162.364 34.932 163.06 36.5407 164.327 37.706C165.619 38.846 167.177 39.416 169.001 39.416C170.496 39.416 171.737 39.074 172.725 38.39C173.738 37.6807 174.448 36.7433 174.853 35.578H178.577C178.02 37.5793 176.905 39.2133 175.233 40.48C173.561 41.7213 171.484 42.342 169.001 42.342C167.025 42.342 165.252 41.8987 163.681 41.012C162.136 40.1253 160.92 38.8713 160.033 37.25C159.146 35.6033 158.703 33.7033 158.703 31.55C158.703 29.3967 159.134 27.5093 159.995 25.888C160.856 24.2667 162.06 23.0253 163.605 22.164C165.176 21.2773 166.974 20.834 169.001 20.834C170.977 20.834 172.725 21.2647 174.245 22.126C175.765 22.9873 176.93 24.178 177.741 25.698C178.577 27.1927 178.995 28.89 178.995 30.79ZM175.423 30.068C175.423 28.7507 175.132 27.6233 174.549 26.686C173.966 25.7233 173.168 25.0013 172.155 24.52C171.167 24.0133 170.065 23.76 168.849 23.76C167.101 23.76 165.606 24.3173 164.365 25.432C163.149 26.5467 162.452 28.092 162.275 30.068H175.423ZM202.559 30.79C202.559 31.4487 202.521 32.1453 202.445 32.88H185.801C185.928 34.932 186.625 36.5407 187.891 37.706C189.183 38.846 190.741 39.416 192.565 39.416C194.06 39.416 195.301 39.074 196.289 38.39C197.303 37.6807 198.012 36.7433 198.417 35.578H202.141C201.584 37.5793 200.469 39.2133 198.797 40.48C197.125 41.7213 195.048 42.342 192.565 42.342C190.589 42.342 188.816 41.8987 187.245 41.012C185.7 40.1253 184.484 38.8713 183.597 37.25C182.711 35.6033 182.267 33.7033 182.267 31.55C182.267 29.3967 182.698 27.5093 183.559 25.888C184.421 24.2667 185.624 23.0253 187.169 22.164C188.74 21.2773 190.539 20.834 192.565 20.834C194.541 20.834 196.289 21.2647 197.809 22.126C199.329 22.9873 200.495 24.178 201.305 25.698C202.141 27.1927 202.559 28.89 202.559 30.79ZM198.987 30.068C198.987 28.7507 198.696 27.6233 198.113 26.686C197.531 25.7233 196.733 25.0013 195.719 24.52C194.731 24.0133 193.629 23.76 192.413 23.76C190.665 23.76 189.171 24.3173 187.929 25.432C186.713 26.5467 186.017 28.092 185.839 30.068H198.987Z" fill="#FF7100"/>
<rect x="7.44638" y="2.09668" width="43" height="10" rx="5" transform="rotate(33 7.44638 2.09668)" fill="#F2720C"/>
<g filter="url(#filter0_d)">
<rect x="2.25458" y="43.4194" width="43" height="10" rx="5" transform="rotate(-33 2.25458 43.4194)" fill="#F38024"/>
</g>
<rect x="204.255" y="40" width="26" height="5" fill="#F38024"/>
<defs>
<filter id="filter0_d" x="0.254578" y="17.9999" width="45.5092" height="35.8062" filterUnits="userSpaceOnUse" color-interpolation-filters="sRGB">
<feFlood flood-opacity="0" result="BackgroundImageFix"/>
<feColorMatrix in="SourceAlpha" type="matrix" values="0 0 0 0 0 0 0 0 0 0 0 0 0 0 0 0 0 0 127 0"/>
<feOffset/>
<feGaussianBlur stdDeviation="1"/>
<feColorMatrix type="matrix" values="0 0 0 0 0 0 0 0 0 0 0 0 0 0 0 0 0 0 0.25 0"/>
<feBlend mode="normal" in2="BackgroundImageFix" result="effect1_dropShadow"/>
<feBlend mode="normal" in="SourceGraphic" in2="effect1_dropShadow" result="shape"/>
</filter>
</defs>
</svg>
